<svg xmlns="http://www.w3.org/2000/svg" viewBox="0 0 1216 912"><defs><style>.a60932e9-6937-4fd2-87c1-bb9a42d57285{fill:#fefefe;}.a2b0227f-fec7-470b-9b0d-89d5767119bc{fill:#96ccee;}.fc9faba7-f809-45df-9278-3cc62e9496e1{fill:#0b1b30;}.ee593240-d668-400f-9ad3-03eedfc2fd94{fill:#1b557a;}.b62627cc-5b51-4466-8bf2-74e967a271ab{fill:#387195;}.f1e433c4-a7bb-4ac3-96bb-bed33074374b{fill:#122d4d;}.fd6d5a50-abc8-41e9-b5f4-4525a5a40460{fill:#94cbed;}.aaf4c4f7-673d-44a4-ae2e-27dec8cdec0d{fill:#346d92;}.e26841e1-23e8-424d-9836-2c5c3d09d99d{fill:#1c557a;}.a7e7141d-d618-49c2-9e49-1e4c8937d9e8{fill:#d0e8f5;}.b451f595-0a73-4869-8b4a-2b0c43aa5696{fill:#fafcfd;}</style></defs><g id="a9cca84d-95c3-46ea-ba0a-5e0f954ed930" data-name="Layer 2"><g id="b5b1ab30-d2e0-4e5c-bed5-019f6452e89d" data-name="Layer 1"><path class="a60932e9-6937-4fd2-87c1-bb9a42d57285" d="M.1,561Q.1,282.82,0,4.6C0,.78.79,0,4.6,0Q608,.17,1211.4,0c3.81,0,4.6.78,4.6,4.6q-.2,158.73-.1,317.47c-16.29,25.41-16.33,55.7-24.7,83.75-20.18-19-28.26-20.27-44.31-7.65-5-9.95-9.88-20.06-15.21-29.92-4.84-9-8.94-19.26-20.67-21.11-12.39-1.95-19.17,6.52-23.85,15.95-5.33,10.76-9.21,22.23-14,34.09-.6-1.41-1.12-2.1-1.16-2.82-2.22-40.95-12.9-80.12-25-119-5.88-18.88-27.44-27.21-42.06-15-21.89,18.27-32.06,43.32-36,71.06-3,20.93-7.41,41.37-17.65,61-3.18-9.45-7.37-17.57-13.53-24.64S926.15,353.31,920,346.41c-5.88-6.56-13.06-10.29-22.2-7.14-16.52,5.69-30.35,38-26.28,61.19L904.91,412l10,4c9.88,4.2,18.87,9.11,18,22.07-5.81.11-11.65-.12-17.42.4Q800.85,449,686.19,459.67c-.53-2.08-1.05-4.17-1.61-6.25-3-11.05-13.21-23.12,4.44-31.23,1.67-.7,3.35-1.38,5-2.09,13.49-5.69,25.14-17.78,41.92-12,18.77,16.76,40.54,27.87,65.7,28.65,19.3.6,37.48-5.07,49.19-22.76l9.57-11.3a189,189,0,0,1-16.74-84.6c9.43-7.43,17.12-15.79,21.6-27.57,6.38-16.79,1.8-33.31-11.23-34.55,1.89-13.91-.85-27.29-4.93-40.43,13.78-8,20.84-30.06,15.32-47.49-6.22-19.62-20.76-30.76-41.4-27.72-14.09,2.07-23.61,11.92-23.22,27.89-27.69-5.65-53.41-1.36-75.11,16.33-13.36,10.89-23,25.33-20.47,44.41-3.77,14.07-5.44,28.1.89,42l0,0,1.83,8.86c-6.56,5.66-26-6.39-20.94,15.23H621.52v.15H410.05l-69.3-46.09L223.23,325.38c-4.44-16.28-8.78-32.58-13.34-48.82-8.55-30.39-34.42-43.16-52.76-25.8-19.53,18.49-32.08,41.17-36.95,67.71-5.1,27.81-8.28,56.1-22.49,81.88-3.62-23.45-24.57-35.3-36.17-53.62-4.86-7.66-14-10.56-24-7.59-19.23,5.73-23.46,22.53-27.06,38.42-6.54,28.87-6.07,58.64-6.83,88C2.76,499.8,23.05,522.9,51.14,524v94.13H71.81c-1.88-32.12-3.71-63.54-5.54-95,18.62,3.65,29.59-10.86,40.23-53.35,13.9,20,31.43,35.15,54.52,43.29L160.84,577c-18.63-1.44-32.44,5.2-39,23.48-13.12-1.73-21.74,8.53-20.3,24.46h51.66c20.46-.27,40.93-.83,61.39-.76,36.15.11,72.3.78,108.45.91,40.63.15,81.26,0,121.89-.07,37.36-.1,74.72-.34,112.08-.51,12,.85,16,13.38,25.63,17.71,3.12,28.17,4,56.62,12,84.14,3.08,10.56,7.07,16.35,20,14.1,15.46-2.7,31.4-2.64,47.14-3.78C672.06,742.3,685,741,694,750.37c9.29,9.73,21.51,13.06,34.36,9.79,12.68-3.22,24.81-8.53,37.32-12.45,23.94-7.5,40.26-3.36,54.54,15.65,10.88,14.48,23.56,21.38,42.1,19.9,35.15-2.79,60.29,11.94,75,44.88,9.57,21.45,28.72,22.55,41.74,3.27-1.84-11.12-2.66-22.7-5.77-33.62-8.7-30.49-18.35-60.7-27.62-91l98.1-12.95c-2.24-20.47-4.49-41.09-6.75-61.72l2-3c6.27-6.36,15.4-10,18.78-19.48,9.46-4.33,17.82-28,13.48-38.74-1.29-.69-2.59-1.36-2.63-1.38-6.49-19.26-19-28.69-37.88-30.33q-.79-22.95-1.58-45.9c22.55-4.09,31-21.24,37-42.47,5.44,22.2,6.39,44.82,31.55,52.42V586h20.93c-1.66-28.31-3.3-56.11-4.93-83.91,11.45-2.31,15.95-12.56,22.76-20.56,7.6,7.73,15.57,14.06,26.28,15.66-1.59,29.25,2.41,58.75-3.31,88.09h18.92c-3.25-28.84-5.71-57.38-4.23-86.08,15.33.23,19.84-11.08,23.72-23.27a44.19,44.19,0,0,0,18.12,11.15v89c-14.7-4.63-27.72,3.2-25.54,15h25.54V912H.1V625H32.3a33.46,33.46,0,0,0,6.15-29.16c-4.07-15.52-19.07-12.51-31.08-13.82C6.92,574,4.92,567,.1,561Zm90,34-8.62-.46v28.87h9.86c-.43-9.75-.84-19.08-1.25-28.42l.18-.4Zm1049.48-13.63c-.64,3.06.16,5.73,4,8.61,3.09-5.35,6.71-10.21,8.6-15.67.65-1.88-2.4-6.21-4.82-7.76-5.53-3.56-9.92.1-13.85,3.86C1131.08,576.33,1134.66,579.08,1139.57,581.41Zm-50-.32a6.45,6.45,0,0,0-7-4.79c-2.78.14-5,1.51-5.54,4.33l6.06,11.65c1.54-2.89,2.35-4.52,3.27-6.09S1088.44,582.9,1089.59,581.09Z"/><path class="a2b0227f-fec7-470b-9b0d-89d5767119bc" d="M933,438.12c.85-13-8.14-17.87-18-22.07,3.43-9.48,10.19-17.92,9.88-29.59-6.9,2.33-8.07,8.54-12,12.71-1.39-8.37-2.7-16.21-4.53-27.21-6.3,15.34-3.62,27.78-3.38,40.06l-33.42-11.56c-4.07-23.23,9.76-55.5,26.28-61.19,9.14-3.15,16.32.58,22.2,7.14,6.18,6.9,11.73,14.35,17.82,21.34s10.35,15.19,13.53,24.64c10.24-19.6,14.7-40,17.65-61,3.91-27.74,14.08-52.79,36-71.06,14.62-12.19,36.18-3.86,42.06,15,12.1,38.86,22.78,78,25,119,0,.72.56,1.41,1.16,2.82,4.79-11.86,8.67-23.33,14-34.09,4.68-9.43,11.46-17.9,23.85-15.95,11.73,1.85,15.83,12.15,20.67,21.11,5.33,9.86,10.18,20,15.21,29.92,16-12.62,24.13-11.33,44.31,7.65,8.37-28.05,8.41-58.34,24.7-83.75v165a44.19,44.19,0,0,1-18.12-11.15c-3.88,12.19-8.39,23.5-23.72,23.27-4.29-15.05,4.42-27.86,5.6-43.28l-5.31,10c-1.51-22.1,2.17-41.75-4.66-61.95-7.76,6.89-2.86,15.72-6.56,22.33l-10.32-18.55c8.29,29.49,12.81,59,9.87,89.45-10.71-1.6-18.68-7.93-26.28-15.66-6.81,8-11.31,18.25-22.76,20.56-.91-7-1.21-13.44,3-20.27,7.66-12.36,18-23.71,19.8-41.33-12.81,7.73-16.5,20.27-23.11,28.59-8.13-28,2.55-53.71,16.89-81.24-11.63,4.64-14.39,12.43-19.79,19.17-1.17-14.1-2.25-27.06-3.32-40-9.22,29.29-5.84,59.16-6.83,89.75l-15.44-17.4c9.92,20.65,20.51,40.22,12.78,63.89-25.16-7.6-26.11-30.22-31.55-52.42-6,21.23-14.44,38.38-37,42.47-3.39-20.11-3.64-40.4-3-60.55l-3.39-1.47c-4.61-34.85,30.64-53.84,35-87.52-16.83,10.71-24.73,26.84-36.13,40.2-2.31-30.56-4.59-60.57-7.27-95.91-8.65,15.72-5,27.67-6.92,39.43-7.7-7-13.19-15.73-26.48-18.45,40.72,34.34,25,79.29,27,121.15-13.39-10.31-23-24.91-41-32.34,4.46,15.46,14,25,20.88,36.11Z"/><path class="a2b0227f-fec7-470b-9b0d-89d5767119bc" d="M.1,561c4.82,6,6.82,13,7.27,21,12,1.31,27-1.7,31.08,13.82A33.46,33.46,0,0,1,32.3,625H.1Z"/><path class="a2b0227f-fec7-470b-9b0d-89d5767119bc" d="M1215.9,591h-25.54c-2.18-11.8,10.84-19.63,25.54-15Z"/><path class="fc9faba7-f809-45df-9278-3cc62e9496e1" d="M1022.7,431.24l3.39,1.47c-.63,20.15-.38,40.44,3,60.55q.8,23,1.58,45.9l-8.43,1.41c-5.57,2.92-16.67-3.75-16.35,9.42l-5.87,1.13c-5,1.48-11.11.68-14.48,6.57L988.7,562l-9.22,6.48,9.09,10.69c10.95,20.21,45.16,21,42.28,52.39l6.11.52c2.26,20.63,4.51,41.25,6.75,61.72l-98.1,12.95c-44.72,4.81-89.43,9.7-134.17,14.42q-74.81,7.89-149.63,15.53c-15.74,1.14-31.68,1.08-47.14,3.78-12.92,2.25-16.91-3.54-20-14.1-8-27.52-8.91-56-12-84.14,3.26-6.7.19-13.49.29-20.23,8.07,1.67,15.82,1.22,22.43-4.1l12.38-9.44c-2-4.12-3.85-7.85-5.6-11.42l6.54-8-10.75-6-11.87-10,7.53-3.51c-1-2.35-1.71-3.92-2.4-5.49-6.51-13.81-19.19-19.62-32.26-24.93-2.09-20.45-4.19-40.9-6.35-62,2.43-1.54.84-4.9,1-8.29,28.26-6.08,57.17-2.08,85.35-6.71l37.24-2.41q114.67-10.6,229.35-21.15c5.77-.52,11.61-.29,17.42-.4l54.82-4.21ZM895.88,613c-1.08-1.25-2-2.84-3.28-3.71-30.76-20-61.58-39.88-92.15-59.66.4-25.85-16.83-44-40.19-42.86-22.6,1.12-38.64,22.12-36,47.09-.2,1.58-.77,3.21-.56,4.72,4.84,34.23,35.81,44.85,66.35,22.51l34.17,22.12c-.4,1.93-.81,3.86-1.21,5.8v10.69l11.16,7.7,8.65-11.77,6.65,3.43-4.33,7.85v11.28l18.9,10.67L874.51,636l9.74,5.5C889.58,632.13,898.31,624.89,895.88,613Z"/><path class="ee593240-d668-400f-9ad3-03eedfc2fd94" d="M736,408.12c-16.78-5.8-28.43,6.29-41.92,12-1.67.71-3.35,1.39-5,2.09-10.22-.07-20.43-.2-30.65-.2q-79.15,0-158.31,0,0-17.46.1-34.93l35.3,22.14V380.89L410.05,295.14H621.53V295H686c6.58,11.72,11.22,25.21,26.48,29,8.08,17.9,13.94,36.86,25.53,53.07v0l11,15C748.27,400.37,739,401.69,736,408.12Z"/><path class="a2b0227f-fec7-470b-9b0d-89d5767119bc" d="M161,513.12c-23.09-8.14-40.62-23.33-54.52-43.29-10.64,42.49-21.61,57-40.23,53.35-4.94-19.71,16.12-31.42,15.78-50.76C72,476,69.71,485.94,63.35,492.22c-1.94-33.44-14.42-66.73,6-98.94-8.82,2.43-10.8,8.75-15,13.93-1.68-9.62-3.26-18.62-5.71-32.61C41.18,401.13,46,422.8,47,445.11c-7.68-8.19-13.14-17.39-25.74-24.18,4,8.18,5.29,14.6,9.18,18.37,24.8,24.07,22,54.49,20.68,84.71C23.05,522.9,2.76,499.8,3.65,465.56c.76-29.36.29-59.13,6.83-88,3.6-15.89,7.83-32.69,27.06-38.42,10-3,19.12-.07,24,7.59,11.6,18.32,32.55,30.17,36.17,53.62,14.21-25.78,17.39-54.07,22.49-81.88,4.87-26.54,17.42-49.22,36.95-67.71,18.34-17.36,44.21-4.59,52.76,25.8,4.56,16.24,8.9,32.54,13.34,48.82l-47.4,30.76c-2.16-23.27-4.3-46.19-6.43-69.12-9.16,12.4-6,26.17-7.67,39.58-17.39-19.47-22.34-23.35-27-21.62,1.61,23.2,32.38,32.25,28.07,59.89l-24.25,15.4c0,10.08,0,19.72,0,29.37l23.71-15.22v48.45c-7.62-7.18-14.27-13.83-21.33-20s-13.2-13.59-24.06-16.43c.51,2.87.34,4.82,1.17,6.16,6.64,10.77,12,22.86,20.54,31.81C157.37,464.09,167.19,485.72,161,513.12Z"/><path class="b62627cc-5b51-4466-8bf2-74e967a271ab" d="M649,462.08c-28.18,4.63-57.09.63-85.35,6.71-.17,3.39,1.42,6.75-1,8.29,2.16,21.14,4.26,41.59,6.35,62-6,.1-11.72.86-15.28,7.31l4.16.88c8.08,13.33,21.84,16.16,35.41,22.76-2.68-3.88-4.21-6.1-6.05-8.79,6.59-5,9.59,2.24,14,2.77.69,1.57,1.38,3.14,2.4,5.49l-7.53,3.51c-12.28.38-22.63-5.16-32.9-10.87-5.28,3.92-5.92,9-4,14.5-13.36,10.69-12.52,27.26,2.19,47.16l-4.37.71c-37.36.17-74.72.41-112.08.51-40.63.1-81.26.22-121.89.07-36.15-.13-72.3-.8-108.45-.91-20.46-.07-40.93.49-61.39.76V599.44L181,598.13H340.52V422.07H464.38V599h71.15V445.84H658.78ZM450,598.81V437.44H354.47V598.81Z"/><path class="b62627cc-5b51-4466-8bf2-74e967a271ab" d="M161,513.12c6.17-27.4-3.65-49-22.5-68.71-8.58-9-13.9-21-20.54-31.81-.83-1.34-.66-3.29-1.17-6.16,10.86,2.84,17.06,10.32,24.06,16.43s13.71,12.82,21.33,20V394.42l-23.71,15.22c0-9.65,0-19.29,0-29.37l24.25-15.4c4.31-27.64-26.46-36.69-28.07-59.89,4.7-1.73,9.65,2.15,27,21.62,1.69-13.41-1.49-27.18,7.67-39.58,2.13,22.93,4.27,45.85,6.43,69.12l47.4-30.76,117.52-76.33,69.3,46.09,125.41,85.75v28.34l-35.3-22.14q-25-16.63-49.93-33.28c-36.77-24.61-73.53-49.25-109.49-73.35L181,382.07v35c-.31,1-2,3.83-1.93,6.64.66,34.14,1.79,68.28,2.33,102.43.33,20.74-.16,41.49-.28,62.23A29.19,29.19,0,0,0,160.84,577Z"/><path class="a2b0227f-fec7-470b-9b0d-89d5767119bc" d="M661.81,736.72q74.82-7.76,149.63-15.53c44.74-4.72,89.45-9.61,134.17-14.42,9.27,30.32,18.92,60.53,27.62,91,3.11,10.92,3.93,22.5,5.77,33.62-13,19.28-32.17,18.18-41.74-3.27-14.69-32.94-39.83-47.67-75-44.88-18.54,1.48-31.22-5.42-42.1-19.9-14.28-19-30.6-23.15-54.54-15.65-12.51,3.92-24.64,9.23-37.32,12.45-12.85,3.27-25.07-.06-34.36-9.79C685,741,672.06,742.3,661.81,736.72Z"/><path class="a2b0227f-fec7-470b-9b0d-89d5767119bc" d="M649,462.08l9.83-16.24H535.53V599H499q.53-88.47,1.06-177,79.16,0,158.31,0c10.22,0,20.43.13,30.65.2-17.65,8.11-7.43,20.18-4.44,31.23.56,2.08,1.08,4.17,1.61,6.25Z"/><path class="f1e433c4-a7bb-4ac3-96bb-bed33074374b" d="M704.24,229c-2.5-19.08,7.11-33.52,20.47-44.41,21.7-17.69,47.42-22,75.11-16.33-.39-16,9.13-25.82,23.22-27.89,20.64-3,35.18,8.1,41.4,27.72,5.52,17.43-1.54,39.49-15.32,47.49,4.08,13.14,6.82,26.52,4.93,40.43-11.19,3.75-18.48,11.13-20.43,23.17-5.17-2.15-4-6.76-5.67-10q-1.05-4.11-2.12-8.22c.19-17.43-30.71-45.81-52-47.77-17.65-8-33.21-2.07-49.12,6.09C718.09,222.7,714.07,232.36,704.24,229Zm98.63-56.4c15.36,10.11,29.13,21.38,37,39.72-4.38-3.51-7.51-6.77-11.29-8.85-4.72-2.59-10-6.28-15.52-2.64-6.13,4-2.66,9.38-.67,14.09,3.85,9.14,14.92,13.07,16.87,23.88,1.21,6.69-1.59,14.15,3.2,20.27,8.42-.43,11.54-7,15-12.25,8.56-12.91-1.88-23-6.38-33.79l8.41-4.37c1.67-13.31-27.14-39.9-44.54-41.17Zm-81,26.44c-2.29,9.84-12.1,10.74-10.58,19.13,5.67,1.52,34.18-16.1,39.52-24.14l-5.28-1.49c8-1.08,15.67-2.79,18.92-11.67l10.42-8.24C760,166.41,721.84,188.84,721.87,199Zm131-4.07c11.73-7,10.2-27-2-39.54-5.11-5.25-10.89-8-16.36-3.56-5.87,4.81-1.83,11.22,1.12,16.68,4.24,7.85,12.63,13.4,12.75,23.41Z"/><path class="fc9faba7-f809-45df-9278-3cc62e9496e1" d="M825.83,261q1.06,4.11,2.12,8.22c-7.47,6.1-19.54,6.16-24,15.42s-7.27,19.6-16.11,26.28c-10.11,5.92-19.48,2.39-28.76-2.25-7.37-4.36-10.56-12.49-18.32-22.84,2.66,12,2.11,19.05-2.81,25.09-6.14,9-14.65,13.29-25.5,13.09-15.26-3.79-19.9-17.28-26.48-29-5.05-21.62,14.38-9.57,20.94-15.23,9.25,2.62,19.61-3.91,28.29,3.95L750,277.1C773.89,265.27,801.46,270.67,825.83,261Z"/><path class="b62627cc-5b51-4466-8bf2-74e967a271ab" d="M787.85,310.9c8.84-6.68,11.57-16.87,16.11-26.28s16.52-9.32,24-15.42c1.63,3.2.5,7.81,5.67,10,2-12,9.24-19.42,20.43-23.17,13,1.24,17.61,17.76,11.23,34.55-4.48,11.78-12.17,20.14-21.6,27.57L838.44,317c-7.29,35-23.87,62.53-58.29,76.08-4.95-6,.53-10.06,3.36-13.79,10.83-14.23,22.82-27.66,26.14-46.15,3.17-17.67-2.78-26.15-15.75-22.14h0Zm72-45.41c-10.29,3.64-13.57,11.2-17.23,20.21l5.11,4.88c-.34,1.63-2.08,4.79,1.82,7.57l5-1.37c2-4.94,4.2-9.47-1.15-12.58C855,277.81,861.9,273.75,859.88,265.49Z"/><path class="b62627cc-5b51-4466-8bf2-74e967a271ab" d="M51.14,524c1.37-30.22,4.12-60.64-20.68-84.71-3.89-3.77-5.22-10.19-9.18-18.37,12.6,6.79,18.06,16,25.74,24.18-1-22.31-5.84-44,1.71-70.51,2.45,14,4,23,5.71,32.61,4.15-5.18,6.13-11.5,15-13.93-20.46,32.21-8,65.5-6,98.94,6.36-6.28,8.64-16.27,18.7-19.8.34,19.34-20.72,31.05-15.78,50.76,1.83,31.42,3.66,62.84,5.54,95H51.14Z"/><path class="fd6d5a50-abc8-41e9-b5f4-4525a5a40460" d="M750,277.1l-14.77,6.61c-8.68-7.86-19-1.33-28.29-3.95l-1.83-8.86a22.69,22.69,0,0,1,21.47,2.53l2.41-4.16c-7.65-6.7-22.25-5.47-23.84,1.67-6.33-13.86-4.66-27.89-.89-42,9.83,3.38,13.85-6.28,20.48-9.68,15.91-8.16,31.47-14.11,49.12-6.09,12.07,11,22.43,22.93,20.11,41-5.14-.91-10.25-2.27-15.43-2.62-11.21-.75-27.14,8.87-26,15.26Zm-.27-20.49c4.8-4.55,7.2-11,13.85-12.73,5.62-1.5,11.09-3.52,17.8-5.7-12.39-8.21-32.15,0-38.45,14.56Zm-37.3,4.07V229.52c-8.34,11.53-8.58,21.71-9,32.52Z"/><path class="b62627cc-5b51-4466-8bf2-74e967a271ab" d="M1097.64,503.21c7.73-23.67-2.86-43.24-12.78-63.89l15.44,17.4c1-30.59-2.39-60.46,6.83-89.75,1.07,12.95,2.15,25.91,3.32,40,5.4-6.74,8.16-14.53,19.79-19.17-14.34,27.53-25,53.25-16.89,81.24,6.61-8.32,10.3-20.86,23.11-28.59-1.83,17.62-12.14,29-19.8,41.33-4.23,6.83-3.93,13.24-3,20.27,1.63,27.8,3.27,55.6,4.93,83.91h-20.93Z"/><path class="aaf4c4f7-673d-44a4-ae2e-27dec8cdec0d" d="M736,408.12c3-6.43,12.31-7.75,13-16.05,9.35,3.47,18.77,6.11,28.74,2.58,7.64,2.07,14.74.15,21.74-2.8,8-3.39,15-2.06,20.11,5.23,7.64,11,11.18,29.14,31.29,16.93-11.71,17.69-29.89,23.36-49.19,22.76C776.5,436,754.73,424.88,736,408.12Z"/><path class="fd6d5a50-abc8-41e9-b5f4-4525a5a40460" d="M1000,551.12l5.87-1.13c14.92,14.24,39.86,2.88,53.12,21.68l6.31-4c-13.89-15.34-32.24-14.47-52.48-17.05,7.15-.79,11.55-1.11,12-6.71l-2.61-3.36,8.43-1.41c18.83,1.64,31.39,11.07,37.88,30.33,0,0,1.34.69,2.63,1.38,4.34,10.75-4,34.41-13.48,38.74-3.38,9.49-12.51,13.12-18.78,19.48-2.34-24.11-19.86-33.78-39.34-40.94.58-2.28,1-4.08,1.66-6.61,19.45,4.1,38.09,9.3,49.37,28.6l7-.58c-14.44-26.5-38.41-31.06-63.46-34l4.74-2V569c23.09.43,43.68,6.76,59.71,24.34l7-1.79c-18.6-21.8-42.51-27.55-68.32-29.33,4.9-1.21,9.73-1.25,9.33-8.32Z"/><path class="e26841e1-23e8-424d-9836-2c5c3d09d99d" d="M850.85,414c-20.11,12.21-23.65-6-31.29-16.93-5.09-7.29-12.09-8.62-20.11-5.23-7,2.95-14.1,4.87-21.74,2.8.82-.51,1.63-1,2.44-1.55,34.42-13.55,51-41,58.29-76.08l5.24,1.09a189,189,0,0,0,16.74,84.6Z"/><path class="b62627cc-5b51-4466-8bf2-74e967a271ab" d="M1162.68,497.16c2.94-30.43-1.58-60-9.87-89.45l10.32,18.55c3.7-6.61-1.2-15.44,6.56-22.33,6.83,20.2,3.15,39.85,4.66,61.95l5.31-10c-1.18,15.42-9.89,28.23-5.6,43.28-1.48,28.7,1,57.24,4.23,86.08h-18.92C1165.09,555.91,1161.09,526.41,1162.68,497.16Z"/><path class="a2b0227f-fec7-470b-9b0d-89d5767119bc" d="M160.84,577a29.19,29.19,0,0,1,20.32,11.31q-.07,4.89-.13,9.78l-27.82,1.31V625H101.55c-1.44-15.93,7.18-26.19,20.3-24.46C128.4,582.24,142.21,575.6,160.84,577Z"/><path class="fd6d5a50-abc8-41e9-b5f4-4525a5a40460" d="M557,624.55l4.37-.71c-14.71-19.9-15.55-36.47-2.19-47.16-2-5.5-1.31-10.58,4-14.5,10.27,5.71,20.62,11.25,32.9,10.87l11.87,10c-3.11-.14-6.5-.91-7.79,3.65.38,1.15.83,2.54,1.29,3.94-.22.2-.43.41-.63.62-13.16-3.06-22.84-15-37.57-14.92v5.46c15.12,2,25.86,13.15,40.28,17.24-2.25,4.41,1.39,7.19,2.05,10.11-17.06-4.55-30.66-17.44-49.64-20.08l1.5,6.12c14.65,1.85,25.33,12.58,41.05,16.53-5.1.45-6.66,2.27-6.45,5.31-11.61.36-21.92-11.2-37-1.84,12.1-.43,20.14,2.75,27.89,6.86-.1,6.74,3,13.53-.29,20.23C573,637.93,569.05,625.4,557,624.55Z"/><path class="b62627cc-5b51-4466-8bf2-74e967a271ab" d="M1000,551.12l6.61,2.78c.4,7.07-4.43,7.11-9.33,8.32,25.81,1.78,49.72,7.53,68.32,29.33l-7,1.79c-16-17.58-36.62-23.91-59.71-24.34v4.5l-4.74,2c25.05,3,49,7.52,63.46,34l-7,.58c-11.28-19.3-29.92-24.5-49.37-28.6-.63,2.53-1.08,4.33-1.66,6.61,19.48,7.16,37,16.83,39.34,40.94l-2,3-6.11-.52c2.88-31.43-31.33-32.18-42.28-52.39l-9.09-10.69L988.7,562l-3.15-4.33C988.92,551.8,995,552.6,1000,551.12Z"/><path class="b62627cc-5b51-4466-8bf2-74e967a271ab" d="M904.91,412c-.24-12.28-2.92-24.72,3.38-40.06,1.83,11,3.14,18.84,4.53,27.21,3.93-4.17,5.1-10.38,12-12.71.31,11.67-6.45,20.11-9.88,29.59Z"/><path class="a2b0227f-fec7-470b-9b0d-89d5767119bc" d="M1139.57,581.41c-4.91-2.33-8.49-5.08-6.14-11,4-3.75,8.35-7.41,13.88-3.85,2.42,1.55,5.47,5.88,4.82,7.76-1.89,5.46-5.51,10.32-8.6,15.67C1139.73,587.14,1138.93,584.47,1139.57,581.41Z"/><path class="a2b0227f-fec7-470b-9b0d-89d5767119bc" d="M90.08,595c.41,9.34.82,18.67,1.25,28.42H81.47V594.58l8.62.46Z"/><path class="a2b0227f-fec7-470b-9b0d-89d5767119bc" d="M1089.59,581.09c-1.15,1.81-2.25,3.42-3.23,5.1s-1.73,3.2-3.27,6.09L1077,580.63c.54-2.82,2.76-4.19,5.54-4.33A6.45,6.45,0,0,1,1089.59,581.09Z"/><path class="a2b0227f-fec7-470b-9b0d-89d5767119bc" d="M90.09,595l.17-.41-.18.4Z"/><path class="b62627cc-5b51-4466-8bf2-74e967a271ab" d="M1022.7,431.24l-34.92,2.67c-6.89-11.08-16.42-20.65-20.88-36.11,18,7.43,27.59,22,41,32.34-2-41.86,13.75-86.81-27-121.15,13.29,2.72,18.78,11.49,26.48,18.45,1.88-11.76-1.73-23.71,6.92-39.43,2.68,35.34,5,65.35,7.27,95.91,11.4-13.36,19.3-29.49,36.13-40.2C1053.34,377.4,1018.09,396.39,1022.7,431.24Z"/><path class="fd6d5a50-abc8-41e9-b5f4-4525a5a40460" d="M845.16,626.89l4.33-7.85,6.15-6.45-12.78-8.71-8.61,12.57L823,609c.4-1.94.81-3.87,1.21-5.8,1.65-2.4,3.3-4.81,5.28-7.68l-39.89-25.35c-28.54,20.61-50.69,15-65.35-16.32-2.66-25,13.38-46,36-47.09,23.36-1.15,40.59,17,40.19,42.86,30.57,19.78,61.39,39.68,92.15,59.66,1.33.87,2.2,2.46,3.28,3.71l-11.42,16.8-9.9-4.61-10.83,13.2Zm-99.58-77.83c2.59,10.22,10.29,12.8,19.37,12.06,6.89-.56,11.59-4.44,12-12,3-7.05-.24-12.37-5.53-16.24-6.79-5-14.29-4.45-20.57.91C746.42,537.5,741.91,542.12,745.58,549.06Z"/><path class="b62627cc-5b51-4466-8bf2-74e967a271ab" d="M601.44,590.62c-.46-1.4-.91-2.79-1.29-3.94,1.29-4.56,4.68-3.79,7.79-3.65l10.75,6-6.54,8c1.75,3.57,3.57,7.3,5.6,11.42l-12.38,9.44c-6.61,5.32-14.36,5.77-22.43,4.1-7.75-4.11-15.79-7.29-27.89-6.86,15.06-9.36,25.37,2.2,37,1.84-.21-3,1.35-4.86,6.45-5.31-15.72-4-26.4-14.68-41.05-16.53l-1.5-6.12c19,2.64,32.58,15.53,49.64,20.08-.66-2.92-4.3-5.7-2.05-10.11-14.42-4.09-25.16-15.21-40.28-17.24v-5.46c14.73-.11,24.41,11.86,37.57,14.92l1.46.7Zm2.15,1.89h-.31v1h.31Z"/><path class="aaf4c4f7-673d-44a4-ae2e-27dec8cdec0d" d="M724.28,553.84c14.66,31.34,36.81,36.93,65.35,16.32l39.89,25.35c-2,2.87-3.63,5.28-5.28,7.68l-34.17-22.12c-30.54,22.34-61.51,11.72-66.35-22.51C723.51,557.05,724.08,555.42,724.28,553.84Z"/><path class="fd6d5a50-abc8-41e9-b5f4-4525a5a40460" d="M601.2,564.05c-4.43-.53-7.43-7.76-14-2.77,1.84,2.69,3.37,4.91,6.05,8.79-13.57-6.6-27.33-9.43-35.41-22.76l-4.16-.88c3.56-6.45,9.26-7.21,15.28-7.31C582,544.43,594.69,550.24,601.2,564.05Z"/><path class="aaf4c4f7-673d-44a4-ae2e-27dec8cdec0d" d="M845.16,626.89l18.57,11.48,10.83-13.2,9.9,4.61L895.88,613c2.43,11.91-6.3,19.15-11.63,28.47l-9.74-5.5-10.45,12.89-18.9-10.67Z"/><path class="b62627cc-5b51-4466-8bf2-74e967a271ab" d="M1022.25,540.57l2.61,3.36c-.46,5.6-4.86,5.92-12,6.71,20.24,2.58,38.59,1.71,52.48,17.05l-6.31,4c-13.26-18.8-38.2-7.44-53.12-21.68C1005.58,536.82,1016.68,543.49,1022.25,540.57Z"/><path class="aaf4c4f7-673d-44a4-ae2e-27dec8cdec0d" d="M823,609l11.22,7.46,8.61-12.57,12.78,8.71L849.49,619l-6.65-3.43-8.65,11.77L823,619.68Z"/><path class="a7e7141d-d618-49c2-9e49-1e4c8937d9e8" d="M181,598.13q.06-4.89.13-9.78c.12-20.74.61-41.49.28-62.23-.54-34.15-1.67-68.29-2.33-102.43-.06-2.81,1.62-5.64,1.93-6.64v-35l159.7-101.61c36,24.1,72.72,48.74,109.49,73.35q24.93,16.69,49.93,33.28-.06,17.46-.1,34.93-.54,88.49-1.06,177H464.38V422.07H340.52V598.13ZM309.71,401.06H206.85V506.28H196.48c.32,4.79.58,8.83.83,12.68H318.4V505.54l-8.69,1.17Z"/><path class="fd6d5a50-abc8-41e9-b5f4-4525a5a40460" d="M780.15,393.1c-.81.52-1.62,1-2.44,1.55-10,3.53-19.39.89-28.74-2.58l-11-15c8.42,2.15,11.55,13.88,22.57,12.57.2-2.23.37-4.12.6-6.72-23.7-10.52-23.62-38-40.54-57.69,1.25,6.14,1.48,9.24,2.51,12.05C728,350.56,733,363.8,738,377.06c-11.59-16.21-17.45-35.17-25.53-53.07,10.85.2,19.36-4.13,25.5-13.09.71,8.68-5.93,20,10.08,23.78a46,46,0,0,0,7-3.21c9.54-6.06,3.4-15.08,4.05-22.82,9.28,4.64,18.65,8.17,28.76,2.25l6.09.11c-3.89,2.38-9.64,1.54-12.13,7.19l3,2.75,13-3.47v-5.54L793.9,311c13-4,18.92,4.47,15.75,22.14-3.32,18.49-15.31,31.92-26.14,46.15C780.68,383,775.2,387.08,780.15,393.1Zm-3.35-41.57c-6.64-11.46-16.74-13.39-28.45-11.29-5.41,1-7.06,5.21-7.21,9.9-.29,9.38,4.28,16.74,13.21,18.5C766.82,371.1,771.06,360.44,776.8,351.53Z"/><path class="a2b0227f-fec7-470b-9b0d-89d5767119bc" d="M450,598.81H354.47V437.44H450Zm-12-67.06c-.12-4.11,1.74-9-4.15-10.3-3.53-.76-7.76-.85-8.73,4.06-1.05,5.33,1.89,8.32,6.92,9.88Z"/><path class="fc9faba7-f809-45df-9278-3cc62e9496e1" d="M802.87,172.58l2.11-5.11c17.4,1.27,46.21,27.86,44.54,41.17L841.11,213c4.5,10.83,14.94,20.88,6.38,33.79-3.48,5.26-6.6,11.82-15,12.25-4.79-6.12-2-13.58-3.2-20.27-1.95-10.81-13-14.74-16.87-23.88-2-4.71-5.46-10.08.67-14.09,5.56-3.64,10.8.05,15.52,2.64,3.78,2.08,6.91,5.34,11.29,8.85C832,194,818.23,182.69,802.87,172.58Z"/><path class="aaf4c4f7-673d-44a4-ae2e-27dec8cdec0d" d="M794,254.25c2.32-18.11-8-30-20.11-41,21.28,2,52.18,30.34,52,47.77-24.37,9.69-51.94,4.29-75.85,16.12l2.58-10.21c1.66.05,4.12.83,4.85,0,10.46-11.43,23.38-11.57,37.57-8Z"/><path class="aaf4c4f7-673d-44a4-ae2e-27dec8cdec0d" d="M721.87,199c0-10.18,38.12-32.61,53-26.41l-10.42,8.24c-3.25,8.88-11,10.59-18.92,11.67l5.28,1.49c-5.34,8-33.85,25.66-39.52,24.14C709.77,209.76,719.58,208.86,721.87,199Z"/><path class="fc9faba7-f809-45df-9278-3cc62e9496e1" d="M852.83,195l-4.46-3c-.12-10-8.51-15.56-12.75-23.41-3-5.46-7-11.87-1.12-16.68,5.47-4.49,11.25-1.69,16.36,3.56C863,167.9,864.56,187.9,852.83,195Z"/><path class="b62627cc-5b51-4466-8bf2-74e967a271ab" d="M759.09,308.65c-.65,7.74,5.49,16.76-4.05,22.82a46,46,0,0,1-7,3.21c-16-3.76-9.37-15.1-10.08-23.78,4.92-6,5.47-13.09,2.81-25.09C748.53,296.16,751.72,304.29,759.09,308.65Z"/><path class="fd6d5a50-abc8-41e9-b5f4-4525a5a40460" d="M859.88,265.49c2,8.26-4.84,12.32-6.45,18.71,5.35,3.11,3.11,7.64,1.15,12.58l-5,1.37c-3.9-2.78-2.16-5.94-1.82-7.57l-5.11-4.88C846.31,276.69,849.59,269.13,859.88,265.49Z"/><path class="b451f595-0a73-4869-8b4a-2b0c43aa5696" d="M749.71,256.61l-6.8-3.87c6.3-14.51,26.06-22.77,38.45-14.56-6.71,2.18-12.18,4.2-17.8,5.7C756.91,245.66,754.51,252.06,749.71,256.61Z"/><path class="f1e433c4-a7bb-4ac3-96bb-bed33074374b" d="M794,254.25l1,4.63c-14.19-3.53-27.11-3.39-37.57,8-.73.8-3.19,0-4.85,0-1.18-6.39,14.75-16,26-15.26C783.7,252,788.81,253.34,794,254.25Z"/><path class="b451f595-0a73-4869-8b4a-2b0c43aa5696" d="M712.41,260.68l-9,1.36c.41-10.81.65-21,9-32.52Z"/><path class="f1e433c4-a7bb-4ac3-96bb-bed33074374b" d="M705.13,270.94c1.59-7.14,16.19-8.37,23.84-1.67l-2.41,4.16a22.69,22.69,0,0,0-21.47-2.53Z"/><path class="fc9faba7-f809-45df-9278-3cc62e9496e1" d="M776.92,549.07c-.38,7.61-5.08,11.49-12,12-9.08.74-16.78-1.84-19.37-12.06C756,538.78,766.48,536.61,776.92,549.07Z"/><path class="aaf4c4f7-673d-44a4-ae2e-27dec8cdec0d" d="M776.92,549.07c-10.44-12.46-20.89-10.29-31.34,0-3.67-6.94.84-11.56,5.24-15.32,6.28-5.36,13.78-5.88,20.57-.91C776.68,536.7,779.91,542,776.92,549.07Z"/><path class="fd6d5a50-abc8-41e9-b5f4-4525a5a40460" d="M603.59,592.51v1h-.31v-1Z"/><path class="fd6d5a50-abc8-41e9-b5f4-4525a5a40460" d="M601.44,590.62l.83,1.32-1.46-.7C601,591,601.22,590.82,601.44,590.62Z"/><path class="b62627cc-5b51-4466-8bf2-74e967a271ab" d="M309.71,401.06V506.71l8.69-1.17V519H197.31c-.25-3.85-.51-7.89-.83-12.68h10.37V401.06ZM296.59,505.63V413.46H262.06v92.17Zm-43.92-92.19h-33.8v92.25h33.8Z"/><path class="f1e433c4-a7bb-4ac3-96bb-bed33074374b" d="M776.8,351.53c-5.74,8.91-10,19.57-22.45,17.11-8.93-1.76-13.5-9.12-13.21-18.5.15-4.69,1.8-8.92,7.21-9.9C760.06,338.14,770.16,340.07,776.8,351.53Zm-5-1.73c-9.85-3.37-18.87-.29-27.12,4.49C754.59,359.92,763.53,356.33,771.75,349.8Z"/><path class="b451f595-0a73-4869-8b4a-2b0c43aa5696" d="M738,377.06c-5-13.26-10-26.5-14.87-39.81-1-2.81-1.26-5.91-2.51-12.05,16.92,19.65,16.84,47.17,40.54,57.69-.23,2.6-.4,4.49-.6,6.72-11,1.31-14.15-10.42-22.57-12.57Z"/><path class="b451f595-0a73-4869-8b4a-2b0c43aa5696" d="M793.9,311l3.85.92v5.54l-13,3.47-3-2.75c2.49-5.65,8.24-4.81,12.13-7.19Z"/><path class="b62627cc-5b51-4466-8bf2-74e967a271ab" d="M438,531.75l-6,3.64c-5-1.56-8-4.55-6.92-9.88,1-4.91,5.2-4.82,8.73-4.06C439.75,522.73,437.89,527.64,438,531.75Z"/><path class="f1e433c4-a7bb-4ac3-96bb-bed33074374b" d="M296.59,505.63H262.06V413.46h34.53Z"/><path class="f1e433c4-a7bb-4ac3-96bb-bed33074374b" d="M252.67,413.44v92.25h-33.8V413.44Z"/><path class="fc9faba7-f809-45df-9278-3cc62e9496e1" d="M771.75,349.8c-8.22,6.53-17.16,10.12-27.12,4.49C752.88,349.51,761.9,346.43,771.75,349.8Z"/></g></g></svg>