<svg id="Capa_1" enable-background="new 0 0 512 512" height="512" viewBox="0 0 512 512" width="512" xmlns="http://www.w3.org/2000/svg"><g><g><g><g><path d="m497.287 268.675-97.216-133.435c-4.004-5.496-10.394-8.746-17.194-8.746h-361.604c-11.749 0-21.273 9.524-21.273 21.273v266.869c0 11.749 9.524 21.273 21.273 21.273h361.604c6.8 0 13.19-3.251 17.194-8.746l97.216-133.435c5.439-7.465 5.439-17.588 0-25.053zm-97.685 12.527c0-14.189 11.509-25.698 25.698-25.698 14.2 0 25.708 11.509 25.708 25.698s-11.508 25.698-25.708 25.698c-14.189-.001-25.698-11.509-25.698-25.698z" fill="#fe255f"/></g><g><path d="m497.29 268.68-85.36-117.16c-7.46 143.91-126.51 258.31-272.28 258.31-51.04 0-98.8-14.02-139.65-38.43v43.24c0 11.75 9.52 21.27 21.27 21.27h361.61c6.8 0 13.19-3.25 17.19-8.75l97.22-133.43c5.44-7.47 5.44-17.59 0-25.05zm-71.99 38.22c-14.19 0-25.7-11.51-25.7-25.7s11.51-25.7 25.7-25.7c14.2 0 25.71 11.51 25.71 25.7s-11.51 25.7-25.71 25.7z" fill="#e01152"/></g><path d="m40.828 380.104v-195.809c0-8.264 6.684-14.971 14.947-15l274.643-.965c8.305-.029 15.053 6.695 15.053 15v195.809c0 8.264-6.684 14.971-14.947 15l-274.643.965c-8.305.029-15.053-6.695-15.053-15z" fill="#f1eee0"/><path d="m345.47 208.77v170.37c0 8.26-6.68 14.97-14.95 15l-274.64.96c-8.3.03-15.05-6.69-15.05-15v-60.99c32.45 25.36 73.3 40.48 117.68 40.48 91.74 0 168.41-64.61 186.96-150.82z" fill="#e8e4d8"/><g><path d="m33.845 147.455v.711c0 11.604 9.429 21 21.033 20.959l201.707-.711c11.546-.041 20.885-9.412 20.885-20.959 0-11.575-9.384-20.959-20.959-20.959h-201.707c-11.575.001-20.959 9.384-20.959 20.959z" fill="#fc709b"/></g><g><path d="m173.638 126.497h-67.985c-11.671 0-21.131 9.461-21.131 21.131v.24c0 11.7 9.506 21.173 21.206 21.131l67.985-.24c11.641-.041 21.057-9.49 21.057-21.131-.001-11.671-9.462-21.131-21.132-21.131z" fill="#f7a6c1"/></g><g><path d="m512 184.221c0 59.628-48.502 108.13-108.13 108.13-.574 0-1.159 0-1.734-.021-1.627-3.361-2.531-7.137-2.531-11.126 0-3.606.745-7.041 2.095-10.158.723.021 1.447.032 2.17.032 47.896 0 86.857-38.961 86.857-86.857 0-47.885-38.961-86.857-86.857-86.857-25.74 0-48.896 11.275-64.808 29.133h-26.57c19.178-30.261 52.97-50.406 91.378-50.406 59.628-.001 108.13 48.512 108.13 108.13z" fill="#706c64"/></g><g><path d="m477.931 248.797c-3.914-4.531-10.77-4.871-15.167-.806-15.49 14.321-36.184 23.087-58.895 23.087-.723 0-1.447-.011-2.17-.032-1.351 3.117-2.095 6.552-2.095 10.158 0 3.989.904 7.765 2.531 11.126.574.021 1.159.021 1.734.021 28.322 0 54.13-10.946 73.426-28.827 4.144-3.84 4.47-10.291.776-14.565-.046-.054-.093-.108-.14-.162z" fill="#595751"/></g><g><path d="m500.379 181.129c6.503 0 11.453-5.775 10.537-12.213-6.293-44.223-39.444-79.917-82.361-89.977-6.661-1.561-13.033 3.541-13.033 10.383v.003c0 4.909 3.348 9.22 8.128 10.337 34.507 8.07 61.158 36.761 66.199 72.315.744 5.249 5.229 9.152 10.53 9.152z" fill="#8f8b81"/></g><g><path d="m480.28 122.595c.053-.056.105-.112.158-.168 3.891-4.132 3.817-10.628-.199-14.638-6.966-6.955-14.875-12.965-23.515-17.824-5.11-2.874-11.597-.915-14.357 4.257-.034.063-.067.126-.101.188-2.678 5.01-.94 11.291 4.011 14.076 6.958 3.914 13.324 8.761 18.93 14.367 4.187 4.188 11.013 4.053 15.073-.258z" fill="#b5b1a4"/></g></g></g><g><path d="m277.704 292.371h-67.371c-4.97 0-8.999 4.029-8.999 8.999v26.09h-36.571c-3.313 0-5.999 2.686-5.999 5.999v5.999c0 3.313 2.686 5.999 5.999 5.999h36.571v23.284c0 4.97 4.029 8.999 8.999 8.999h67.371c4.97 0 8.999-4.029 8.999-8.999v-67.371c-.001-4.971-4.03-8.999-8.999-8.999zm-8.999 67.37h-49.373v-49.374h49.373z" fill="#44433f"/><path d="m257.03 292.371h-25.298c-4.97 0-8.999 4.029-8.999 8.999 0 4.97 4.029 8.999 8.999 8.999h25.298c4.97 0 8.999-4.029 8.999-8.999-.001-4.971-4.029-8.999-8.999-8.999z" fill="#706c64"/><path d="m105.766 271.02h67.371c4.97 0 8.999-4.028 8.999-8.999v-67.371c0-4.97-4.028-8.999-8.999-8.999h-67.371c-4.97 0-8.999 4.028-8.999 8.999v67.371c.001 4.971 4.029 8.999 8.999 8.999zm8.999-67.37h49.374v49.374h-49.374z" fill="#44433f"/><path d="m140.322 203.65h23.817v38.146c0 4.97 4.029 8.999 8.999 8.999 4.97 0 8.999-4.029 8.999-8.999v-47.144c0-4.97-4.029-8.999-8.999-8.999h-32.815c-4.97 0-8.998 4.029-8.998 8.999-.002 4.969 4.027 8.998 8.997 8.998z" fill="#706c64"/><path d="m164.138 205.535v17.57c0 4.97 4.029 8.999 8.999 8.999 4.97 0 8.999-4.029 8.999-8.999v-17.57c0-4.97-4.029-8.999-8.999-8.999-4.97 0-8.999 4.029-8.999 8.999z" fill="#8f8b81"/><path d="m105.766 377.738h19.558c3.313 0 5.999-2.686 5.999-5.999v-5.999c0-3.313-2.686-5.999-5.999-5.999h-10.559v-49.374h12.198v29.589c0 3.313 2.686 5.999 5.999 5.999h5.999c3.313 0 5.999-2.686 5.999-5.999v-29.589h22.178c3.313 0 5.999-2.686 5.999-5.999v-5.999c0-3.313-2.686-5.999-5.999-5.999h-61.372c-4.97 0-8.999 4.029-8.999 8.999v67.371c.001 4.969 4.029 8.998 8.999 8.998z" fill="#44433f"/><path d="m96.768 307.701v44.881c0 4.97 4.029 8.999 8.999 8.999 4.97 0 8.999-4.029 8.999-8.999v-44.881c0-4.97-4.029-8.999-8.999-8.999-4.971.001-8.999 4.029-8.999 8.999z" fill="#706c64"/><path d="m114.765 322.252v-5.439c0-4.97-4.029-8.998-8.998-8.998-4.97 0-8.998 4.029-8.998 8.998v5.439c0 4.97 4.029 8.998 8.998 8.998 4.969 0 8.998-4.029 8.998-8.998z" fill="#8f8b81"/><g fill="#44433f"><path d="m155.045 377.738h18.574c3.313 0 5.999-2.686 5.999-5.999v-5.999c0-3.313-2.686-5.999-5.999-5.999h-18.574c-3.313 0-5.999 2.686-5.999 5.999v5.999c0 3.313 2.686 5.999 5.999 5.999z"/><path d="m274.704 277.322h5.999c3.313 0 5.999-2.686 5.999-5.999v-16.04c0-3.313-2.686-5.999-5.999-5.999h-5.999c-3.313 0-5.999 2.686-5.999 5.999v16.04c0 3.313 2.686 5.999 5.999 5.999z"/><path d="m206.507 276.271h40.955c3.313 0 5.999-2.686 5.999-5.999v-5.999c0-3.313-2.686-5.999-5.999-5.999h-40.955c-3.313 0-5.999 2.686-5.999 5.999v5.999c0 3.313 2.686 5.999 5.999 5.999z"/><path d="m247.462 229.672h-40.955c-3.313 0-5.999 2.686-5.999 5.999v5.999c0 3.313 2.686 5.999 5.999 5.999h40.955c3.313 0 5.999-2.686 5.999-5.999v-5.999c0-3.314-2.685-5.999-5.999-5.999z"/></g><path d="m221.121 247.669h13.898c4.97 0 8.999-4.029 8.999-8.999 0-4.97-4.029-8.999-8.999-8.999h-13.898c-4.97 0-8.999 4.029-8.999 8.999.001 4.97 4.03 8.999 8.999 8.999z" fill="#706c64"/><path d="m218.293 203.65h16.727v7.37c0 3.313 2.686 5.999 5.999 5.999h5.999c3.313 0 5.999-2.686 5.999-5.999v-7.37h15.688v25.929c0 3.313 2.686 5.999 5.999 5.999h5.999c3.313 0 5.999-2.686 5.999-5.999v-34.928c0-4.97-4.029-8.999-8.999-8.999h-68.409c-4.97 0-8.999 4.029-8.999 8.999v14.464c0 3.313 2.686 5.999 5.999 5.999h5.999c3.313 0 5.999-2.686 5.999-5.999v-5.465z" fill="#44433f"/><path d="m136.451 239.179h5.999c3.313 0 5.999-2.686 5.999-5.999v-9.015c0-3.313-2.686-5.999-5.999-5.999h-5.999c-3.313 0-5.999 2.686-5.999 5.999v9.015c0 3.313 2.686 5.999 5.999 5.999z" fill="#44433f"/><path d="m240.5 345.561h5.999c3.313 0 5.999-2.686 5.999-5.999v-9.015c0-3.313-2.686-5.999-5.999-5.999h-5.999c-3.313 0-5.999 2.686-5.999 5.999v9.015c0 3.313 2.686 5.999 5.999 5.999z" fill="#44433f"/></g></g></svg>