<?xml version="1.0" encoding="UTF-8"?>
<svg xmlns="http://www.w3.org/2000/svg" xmlns:xlink="http://www.w3.org/1999/xlink" width="243pt" height="243pt" viewBox="0 0 243 243" version="1.1">
<g id="surface1">
<path style=" stroke:none;fill-rule:nonzero;fill:rgb(37.647059%,62.745098%,66.666667%);fill-opacity:1;" d="M 39.925781 -0.472656 L 148.628906 -0.472656 C 157.863281 -0.472656 165.351562 7.023438 165.351562 16.277344 L 165.351562 225.679688 C 165.351562 234.933594 157.863281 242.429688 148.628906 242.429688 L 39.925781 242.429688 C 30.691406 242.429688 23.207031 234.933594 23.207031 225.679688 L 23.207031 16.277344 C 23.207031 7.023438 30.691406 -0.472656 39.925781 -0.472656 Z M 39.925781 -0.472656 "/>
<path style=" stroke:none;fill-rule:nonzero;fill:rgb(70.196078%,89.411765%,90.980392%);fill-opacity:1;" d="M 140.265625 225.679688 L 48.289062 225.679688 C 43.675781 225.679688 39.925781 221.929688 39.925781 217.300781 L 39.925781 24.652344 C 39.925781 20.027344 43.675781 16.277344 48.289062 16.277344 L 57.371094 16.277344 C 59.589844 16.28125 61.714844 17.160156 63.28125 18.730469 L 66.742188 22.199219 C 68.3125 23.773438 70.4375 24.652344 72.65625 24.652344 L 115.898438 24.652344 C 118.117188 24.652344 120.246094 23.773438 121.8125 22.199219 L 125.269531 18.730469 C 126.84375 17.160156 128.96875 16.28125 131.183594 16.277344 L 140.265625 16.277344 C 144.882812 16.277344 148.628906 20.027344 148.628906 24.652344 L 148.628906 217.300781 C 148.628906 221.929688 144.882812 225.679688 140.265625 225.679688 Z M 140.265625 225.679688 "/>
<path style=" stroke:none;fill-rule:nonzero;fill:rgb(65.882353%,83.921569%,85.490196%);fill-opacity:1;" d="M 94.28125 204.742188 C 87.347656 204.742188 81.738281 199.113281 81.738281 192.175781 C 81.738281 185.234375 87.347656 179.613281 94.28125 179.613281 C 101.207031 179.613281 106.820312 185.234375 106.820312 192.175781 C 106.820312 199.113281 101.207031 204.742188 94.28125 204.742188 Z M 94.28125 204.742188 "/>
<path style=" stroke:none;fill-rule:nonzero;fill:rgb(70.196078%,89.411765%,90.980392%);fill-opacity:1;" d="M 102.636719 16.277344 L 85.917969 16.277344 C 83.605469 16.277344 81.738281 14.402344 81.738281 12.089844 C 81.738281 9.777344 83.605469 7.902344 85.917969 7.902344 L 102.636719 7.902344 C 104.945312 7.902344 106.820312 9.777344 106.820312 12.089844 C 106.820312 14.402344 104.945312 16.277344 102.636719 16.277344 Z M 102.636719 16.277344 "/>
<path style=" stroke:none;fill-rule:nonzero;fill:rgb(98.431373%,83.921569%,60%);fill-opacity:1;" d="M 124.140625 141.917969 L 102.636719 167.046875 L 102.636719 100.039062 C 102.636719 90.785156 110.125 83.285156 119.359375 83.285156 L 202.976562 83.285156 C 212.210938 83.285156 219.699219 90.785156 219.699219 100.039062 L 219.699219 125.164062 C 219.699219 134.421875 212.210938 141.917969 202.976562 141.917969 Z M 124.140625 141.917969 "/>
<path style=" stroke:none;fill-rule:nonzero;fill:rgb(41.176471%,69.019608%,73.333333%);fill-opacity:1;" d="M 202.976562 112.601562 C 202.976562 117.226562 199.234375 120.976562 194.613281 120.976562 C 189.996094 120.976562 186.253906 117.226562 186.253906 112.601562 C 186.253906 107.976562 189.996094 104.226562 194.613281 104.226562 C 199.234375 104.226562 202.976562 107.976562 202.976562 112.601562 Z M 202.976562 112.601562 "/>
<path style=" stroke:none;fill-rule:nonzero;fill:rgb(41.176471%,69.019608%,73.333333%);fill-opacity:1;" d="M 169.527344 112.601562 C 169.527344 117.226562 165.785156 120.976562 161.167969 120.976562 C 156.550781 120.976562 152.808594 117.226562 152.808594 112.601562 C 152.808594 107.976562 156.550781 104.226562 161.167969 104.226562 C 165.785156 104.226562 169.527344 107.976562 169.527344 112.601562 Z M 169.527344 112.601562 "/>
<path style=" stroke:none;fill-rule:nonzero;fill:rgb(41.176471%,69.019608%,73.333333%);fill-opacity:1;" d="M 136.085938 112.601562 C 136.085938 117.226562 132.34375 120.976562 127.722656 120.976562 C 123.105469 120.976562 119.359375 117.226562 119.359375 112.601562 C 119.359375 107.976562 123.105469 104.226562 127.722656 104.226562 C 132.34375 104.226562 136.085938 107.976562 136.085938 112.601562 Z M 136.085938 112.601562 "/>
</g>
</svg>
